<svg version="1.1"
      xmlns="http://www.w3.org/2000/svg"
      xmlns:xlink="http://www.w3.org/1999/xlink"  id="snapshot-62723" width="150" height="150" viewBox="0 0 150 150"><desc>This image was made on Patterninja.com</desc><defs>
<!-- image 12496 -->
<g id="transformed-12496" data-image="12496" transform="translate(-42.5, -16.5) rotate(315, 42.5, 16.5)"><g><svg version="1.1" width="85px" height="33px" viewBox="0 0 85 33"><g id="original-12496"><svg xmlns="http://www.w3.org/2000/svg" viewBox="0 0 1981 759" xmlns:xlink="http://www.w3.org/1999/xlink" version="1.1" preserveAspectRatio="xMidYMid meet">
  <path d="M487.3 0h1.4c5.78.19 11.57.25 17.31 1.06 20.11 2.54 40.35 7.01 58.35 16.63 12.15 6.54 23.39 16.03 29.08 28.88 5.15 11.33 4.9 24.64.37 36.12-6.12 15.81-18.62 28.43-32.89 37.19-22.81 13.99-50.72 18.47-77.02 14.58-29.01-4.17-55.89-18-78.55-36.24-.09 73.57-.22 147.13-.25 220.7 12.49.03 24.98-.03 37.48.03.01 2.72.03 5.45.04 8.18-38.04.02-76.07.01-114.11 0l.03-8.2c9.51-.02 19.03.01 28.55-.01 0-66.98-.07-133.96-.08-200.95 2.17-35.29 18.14-70.66 46.75-92.26C427.43 7.45 457.81.17 487.3 0m-14.69 14.76c-15.86 2.22-31.4 8.69-43.03 19.88-9.72 9.33-16.89 21.89-17.96 35.49-.55 7.76 4.17 14.63 9.38 19.91 9.27 9.16 20.95 15.47 32.91 20.38 15.83 6.3 32.94 10.25 50.06 8.9 16.37-1.16 33.1-5.1 46.75-14.58 9.33-6.43 16.54-16.38 18.22-27.74 2.1-14.77-1.37-31.04-12.01-41.96-10.77-11.17-26.15-16.24-41.06-18.9-14.27-2.3-28.9-3.37-43.26-1.38z" fill="#c8e6c9" stroke="none"/>
  <path d="M574.79 2.54c37.82-.07 75.65.02 113.48-.1-.02 3.14-.06 6.28-.13 9.43-11.67.07-23.34.03-35.02.07 40.25 102.32 80.5 204.64 120.77 306.95 7.23-.12 14.48.11 21.71-.22.22 2.76.05 5.53.04 8.3-36.15.05-72.3.14-108.46.13-.09-2.68-.18-5.36-.24-8.03 11.81-.02 23.63-.2 35.45-.21-9.9-25.08-19.93-50.11-29.81-75.19-11.69 19.37-26.08 36.93-40.84 54.01-15 17.47-36.42 29.56-59.33 32.48-17.05 2.09-35.29-.3-49.9-9.81-10.73-6.86-18.62-17.87-21.79-30.19-4.28-16.19-1.64-33.33 3.48-49.01 3.72-10.89 8.14-21.69 14.82-31.14 9.9-14.2 21.85-26.79 32.81-40.15 9.61-11.81 19.09-23.75 27.74-36.29 9.06-13.36 17.3-27.66 21.19-43.46 2.7-10.92 2.74-22.79-1.66-33.28-6.32-15-12.33-30.14-18.76-45.09-8.54.14-17.07-.04-25.6-.04-.08-3.05-.01-6.11.05-9.16m33.43 143.69c-7.19 11.53-14.52 23.05-23.54 33.26-10.75 13.44-19.8 28.48-25.1 44.92-4.22 14.35-5.81 30.37-.11 44.54 3.7 9.3 12.22 15.77 21.39 19.17 12.86 4.72 27.26 6.44 40.55 2.43 17.16-5.02 31.27-17.12 42.45-30.7 8.42-10.59 16.15-22.06 20.78-34.86-16.39-42.03-32.73-84.07-49.09-126.11-8.82 15.95-17.74 31.85-27.33 47.35z" fill="#c8e6c9" stroke="none"/>
  <path d="M730.46 34.03c7.99-17.06 25.58-27.93 43.63-31.48 73.2-.13 146.4 0 219.61-.04.07 3.41.07 6.82.07 10.23-13.26-.01-26.51.01-39.76.04 4.84 35.23 16.2 69.38 31.83 101.26 18.8 38.37 43.48 73.62 71.07 106.16 19.16-.01 38.32-.13 57.49-.13-13.89 37.87-33.72 73.25-55.49 107.09-18.53.04-37.05.12-55.57.14 19.82-30 38.41-61.43 48.85-96.06-77.41.04-154.82.08-232.22.1 18.12 34.59 41.31 66.3 66.98 95.65-20.03.02-40.05 0-60.07.01-26.83-32.8-49.89-68.67-68.33-106.83 17.54.02 35.08-.16 52.62-.05 23.1-26.05 43.49-54.68 59.1-85.86 19-37.76 30.29-79.29 33.43-121.43-40.9.03-81.8-.04-122.71-.03-12.66.26-25.85 5.2-33.73 15.48-10.18 12.98-10.39 32.27-1.6 46.02 4.37 6.99 11.19 12.45 19.06 14.98 9.78 3.19 20.55 2.12 30.11-1.33.08-.5.26-1.49.34-1.99-5.37-3.47-11.54-6.55-14.75-12.42-3.02-4.89-2.23-11.41 1.3-15.82 8.08-10.38 23.65-13.66 35.41-7.94 6.41 2.89 11.9 8.95 12.13 16.26.23 8.42-5.01 15.72-10.64 21.46-3.15 2.96-6.18 6.34-10.37 7.81-12.56 5.43-26.79 7.65-40.27 4.66-16.88-3.54-32.04-15.45-38.48-31.58-4.53-10.93-4.17-23.7.96-34.36m175.83 49.18c-18.6 48.34-43.86 93.91-73.18 136.53 52.98-.24 105.96-.28 158.93-.56-30.99-48.19-61.12-97.76-79.29-152.43-2.68 5.23-4.13 11.05-6.46 16.46z" fill="#c8e6c9" stroke="none"/>
  <path d="M1486.63 3.86c20.91-1.92 42.3-.74 62.55 5.09 17.33 4.98 33.65 13.7 47.04 25.82 25.09 22.49 38.84 55.03 44.54 87.7 6.6 39.19 5.11 80.53-9.28 117.9-10.67 27.93-29.11 53.41-54.34 69.85-32.99 21.74-75.8 26.17-113.34 14.99-29.92-8.91-55.54-29.77-71.98-56.12-21.15-33.44-28.93-73.94-27.18-113.1 1.4-34.97 9.33-70.83 29.45-100.01 9.85-14.26 22.73-26.48 37.76-35.17 16.66-9.75 35.64-15.08 54.78-16.95m5.9 11.96c-15.57 1.69-31.01 7.38-42.77 17.93-13.02 11.51-21 27.61-25.92 44.04-6.74 22.75-8.68 46.59-9.46 70.2-.63 24.99-.3 50.09 2.97 74.91 2.62 19.19 6.99 38.49 16.11 55.73 6.76 12.82 16.75 24.2 29.56 31.2 16.04 8.89 35.04 10.81 53.05 9.04 15.82-1.57 31.45-7.67 43.11-18.67 13.16-12.21 21.05-28.98 26-45.99 6.99-24.42 8.89-49.95 9.5-75.24.36-23.04-.05-46.17-2.95-69.06-2.5-18.91-6.66-37.96-15.6-54.96-6.78-12.94-17.03-24.33-30.12-31.06-16.34-8.53-35.43-9.97-53.48-8.07z" fill="#c8e6c9" stroke="none"/>
  <path d="M1105.87 3.7c39.43.03 78.86.01 118.29.07.02 3 .01 6-.03 9-11.84 0-23.66-.01-35.49.01.01 84.35-.27 168.71-.59 253.07 30.22-8.33 56.15-27.94 76.33-51.49 4.04-4.64 7.87-9.46 11.63-14.33.62-.97 1.66-1.85 1.55-3.12.09-61.37.27-122.74.33-184.1-12.07-.01-24.15-.01-36.22-.01-.02-3.02-.01-6.04.04-9.07h114.75c-.01 3.04.08 6.08-.1 9.11-8.56-.14-17.13-.08-25.69-.09-.01 101.76-.01 203.53 0 305.3 8.58.04 17.16.14 25.74.16-.01 3.22-.06 6.44.09 9.66-38.3.26-76.62 0-114.92.1.01-3.32.01-6.65.02-9.97 12.14-.01 24.28-.13 36.43-.11-.07-29.16-.17-58.32-.16-87.48-8.59 12.35-19.27 23.28-31.62 31.91-17.49 12.31-37.71 20.14-58.25 25.7.02 9.95-.05 19.89-.03 29.84 12.06-.01 24.13.01 36.19.04-.01 3.36.02 6.73.09 10.1-40.18-.05-80.36-.06-120.54-.1-.04-3.34-.06-6.69-.04-10.03 11.69-.02 23.37 0 35.06-.01-.04-101.61.07-203.23-.05-304.83-10.74-.67-21.88-.06-32.77-.23-.05-3.03-.06-6.06-.04-9.1z" fill="#c8e6c9" stroke="none"/>
  <path d="M866.48 420.74c17.78-2.8 36.51-1.4 53.17 5.68 13.24 5.59 24.85 15.09 32.65 27.2 9.03 13.9 12.92 30.87 11.75 47.34-1.05 14.54-6.77 28.62-15.85 40-9.34 11.77-22.1 20.72-36.23 25.76-18.56 6.68-39.44 6.62-57.96-.15-17.37-6.3-32.62-18.58-41.93-34.59-16.33-27.31-12.07-65.03 9.71-88.17 11.64-12.59 27.87-20.36 44.69-23.07m7.03 10.86c-11.62 2.45-21.13 11.03-26.51 21.4-8.34 15.89-9.96 34.4-8.88 52.05 1.01 14 4.02 28.58 12.75 39.93 6.39 8.43 16.5 13.63 26.98 14.56 10.37.97 21.52-.31 30.3-6.32 7.95-5.39 12.76-14.25 15.43-23.28 3.25-11.01 4.15-22.56 4.46-33.99.25-13.18-.72-26.7-5.6-39.08-3.45-8.83-9.54-16.92-18.05-21.4-9.38-4.92-20.57-5.98-30.88-3.87z" fill="#c8e6c9" stroke="none"/>
  <path d="M1305.99 436.98c16.4-9.54 34.9-16.02 53.97-16.73 20.37-.52 41.18 2.9 59.45 12.2 15.64 7.86 28.91 20.04 38.74 34.46 15.63 22.88 23.39 50.16 27.33 77.32-7.51.06-15.01.1-22.51.1-1.74-11.78-2.71-23.7-5.49-35.3-4.44-17.97-13.35-34.94-26.25-48.29-11.72-12.19-26.8-21.27-43.29-25.22-14.92-3.67-31.09-3.02-45.22 3.3-17.48 7.54-31.37 21.75-40.99 37.95-16.11 27.23-21.62 59.44-21.67 90.72 68.47.03 136.94-.02 205.41.02-.02 5.05.04 10.09.04 15.14-68.81.04-137.62-.01-206.43.03-1.68 21.36-1.16 42.9 1.64 64.15 2.71 19.59 7.47 39.19 16.74 56.8 7.09 13.46 17.36 25.64 30.79 33.09 15.86 8.93 34.93 10.71 52.67 7.77 16.77-2.81 32.45-11.15 44.46-23.14 12.56-12.4 21.44-28.12 27.39-44.64 7.75-21.71 10.72-44.95 10.17-67.94 7.51-.02 15.02-.01 22.55-.01-1.5 22.67-5.31 45.31-12.88 66.77-5.85 16.49-14.02 32.31-25.34 45.73-15.79 19.11-38.7 32.07-63.25 35.61-9.27.98-18.66 3.27-27.94 1.19-19.36-1.64-38.2-8.15-54.64-18.47-41.38-26-68.05-72.45-73.11-120.69-2.18-18.66.24-37.38 1.94-55.97 2.45-22.44 6.35-45.33 17.15-65.45 13.73-24.84 34.05-46.13 58.57-60.5z" fill="#c8e6c9" stroke="none"/>
  <path d="M241.09 426.67c31.25-6.94 64.19-4.07 94.45 5.97 14.88 5.14 29.53 12.74 39.82 24.96 7.79 9.15 12.12 21.31 11.06 33.36-1.19 15.38-9.69 29.31-20.65 39.78-14.7 14.01-33.97 22.71-53.87 26.12-21.3 3.69-43.42 1.28-63.8-5.7-19.5-6.63-37.42-17.32-53.46-30.13-.15 73.55-.13 147.11-.31 220.67 12.5.02 24.99.03 37.49.03.06 2.72.08 5.44.09 8.17-38.05.08-76.1.02-114.16.03.04-2.74.07-5.47.1-8.2 9.49.03 18.98-.07 28.46.06.2-67.27-.07-134.55-.02-201.82 2.05-27.2 11.72-54.27 29.55-75.16 16.58-19.7 40.22-32.74 65.25-38.14m19.45 11.08c-15.27 2.36-30.18 8.71-41.44 19.46-9.63 9.14-16.76 21.43-18.12 34.78-.68 5.26 1.28 10.48 4.24 14.76 6.52 9.27 16.24 15.69 26.09 20.98 16.6 8.52 34.98 14.2 53.73 14.64 18.08-.13 36.72-3.48 52.3-13.07 10.49-6.39 18.93-16.88 20.85-29.23 2.17-14.86-1.27-31.27-11.99-42.27-11.04-11.42-26.85-16.46-42.13-19.06-14.37-2.2-29.1-3.25-43.53-.99z" fill="#c8e6c9" stroke="none"/>
  <path d="M364.08 425.32c37.78-.14 75.55.07 113.32-.18.18 3.16.06 6.32.07 9.48-11.69.09-23.37.02-35.05.12 40.24 102.32 80.49 204.63 120.75 306.94 7.28 0 14.55-.12 21.84-.12-.02 2.73-.05 5.47-.09 8.22-36.16.05-72.32.01-108.48.11-.06-2.68-.14-5.36-.22-8.03 11.81-.08 23.63-.14 35.45-.25-9.92-25.07-19.91-50.11-29.84-75.18-8.51 14.22-18.56 27.46-29.1 40.23-8.82 10.47-17.31 21.53-28.71 29.38-18.29 13.24-41.51 19.84-64.02 16.98-15.27-1.8-30.5-8.54-40.27-20.73-8.71-10.64-12.26-24.71-11.84-38.28.51-17.59 6.29-34.59 13.87-50.31 7.5-14.46 18.65-26.54 29.07-38.91 11.51-13.25 22.44-27.01 32.87-41.12 10.2-14.12 19.73-29.09 24.99-45.83 3.82-12.18 4.78-25.79-.14-37.81-6.28-15.13-12.54-30.27-18.78-45.41-8.62-.03-17.24-.09-25.86-.18.09-3.05.14-6.08.17-9.12m20.17 163.92c-5.21 7.68-11.86 14.25-17.02 21.97-9.68 14.1-17.97 29.67-20.92 46.68-1.98 11.78-1.99 24.47 3.18 35.49 4.09 8.72 12.48 14.59 21.34 17.79 12.62 4.47 26.66 6.09 39.66 2.22 17.11-4.94 31.22-16.93 42.39-30.44 8.54-10.65 16.3-22.22 21.05-35.09-16.35-42.05-32.69-84.1-49.1-126.13-12.81 22.91-25.53 45.96-40.58 67.51z" fill="#c8e6c9" stroke="none"/>
  <path d="M520.9 457.09c7.83-17.46 25.72-28.59 44.03-32.16 73.17-.08 146.36-.01 219.53-.03.01 3.41.04 6.82.04 10.23-13.25.01-26.5 0-39.75.01 4.93 35.97 16.66 70.8 32.8 103.26 18.65 37.6 42.97 72.15 70.04 104.15 19.17.11 38.36-.24 57.53.07-13.97 37.79-33.71 73.16-55.48 106.95-18.52.03-37.04.07-55.56.1 19.83-29.98 38.42-61.41 48.84-96.03-77.39-.02-154.78.08-232.17.14 18.1 34.58 41.31 66.25 66.92 95.61-19.98.07-39.95-.06-59.93.07-26.98-32.75-49.97-68.75-68.47-106.93 17.21.02 34.44-.03 51.65-.03 1.3.2 1.92-1.14 2.72-1.87 22.41-25.73 42.35-53.78 57.57-84.38 18.89-37.63 30.06-78.99 33.25-120.95-40.49-.11-80.98-.01-121.47-.14-12.94 0-26.55 4.77-34.75 15.2-10.54 13.15-10.7 32.99-1.48 46.89 5 7.74 13.09 13.42 22.11 15.36 8.9 2.04 18.21.65 26.77-2.18.11-1.13.56-2.58-.89-2.99-5.85-3.13-11.93-7.12-14.53-13.5-2.22-5.22-.32-11.3 3.43-15.29 7.74-8.38 20.61-11.51 31.35-7.65 6.55 2.22 12.72 7.12 14.49 14.06 1.62 6.29-.81 12.81-4.38 17.97-3.55 5.04-8 9.47-12.95 13.14-14.04 7.04-30.66 9.67-45.98 5.58-15.62-4.07-29.43-15.33-35.68-30.32-4.68-10.85-4.58-23.61.4-34.34m102.98 185c52.97-.13 105.95-.27 158.92-.51-31.09-48.33-61.35-98.06-79.44-152.94-19.23 54.52-46.67 105.92-79.48 153.45z" fill="#c8e6c9" stroke="none"/>
  <path d="M965.41 435.6c-.03-3.04-.04-6.08-.02-9.12 39.41.01 78.82.11 118.23.02.08 2.99.03 6 0 9-12.04-.03-24.07.13-36.11.07-.08 18.87-.02 37.74-.08 56.61 13.43-9.97 29.51-17.6 46.57-17.25 16.02.17 31.03 7.5 43.4 17.25-.01-18.75 0-37.5-.01-56.25-11.98-.19-23.97-.07-35.95-.17-.08-3-.17-5.99-.27-8.98 38.28-.12 76.55-.18 114.83-.36.01 3.06 0 6.12-.04 9.18-8.61-.11-17.21-.12-25.8-.08-.02 102.07.12 204.14.08 306.21 8.56.01 17.13-.06 25.69-.03v8.21c-38.28-.01-76.56 0-114.83-.01-.03-2.75-.01-5.49.08-8.23 12.05.03 24.1-.04 36.16-.09.09-76.98-.07-153.96.09-230.94-8.88-6.38-18.18-12.42-28.47-16.24-8.61-3.24-18.18-4.02-27.11-1.65-12.63 3.3-23.72 10.56-34.4 17.81-.14 76.83-.29 153.66-.45 230.49 12.19.08 24.38.13 36.58.19-.36 3.17-.72 6.35-1.07 9.54-38.88-.08-77.77-.28-116.65-.35-.45-3.24-.89-6.49-1.29-9.73 11.45 0 22.9-.01 34.35 0-.13-101.73-.45-203.47-.66-305.2-10.95-.03-21.9.12-32.85.1z" fill="#c8e6c9" stroke="none"/>
  <path d="M1476.69 429.38c36.4-.05 72.81.02 109.22-.04-.08 3.07-.12 6.14-.13 9.22-9.31.04-18.6.04-27.9.12 1.71 22.77 9.1 45.75 24.29 63.17 16.11 18.81 39.37 29.92 63.02 35.93.03-33-.04-66-.03-99-7.36-.04-14.72.04-22.07.02-.03-3.09-.06-6.18-.08-9.27 31.97-.09 63.94.02 95.92-.06.04 3.1.04 6.21.02 9.31-7.68-.02-15.35-.09-23.02-.11-.03 33.02-.1 66.04-.13 99.06 20.44-1.82 41.09-7.05 58.33-18.54 13.63-8.96 24.45-21.9 31.44-36.59 6.61-13.77 10.21-28.81 11.97-43.93-5.56-.01-11.1.01-16.64-.01-.01-3.12-.09-6.24.11-9.34 34.29.1 68.58.02 102.88.04l.06 9.31c-6.53 0-13.06-.02-19.58.01-11.81 29.95-32.12 56.72-58.84 74.88-32.22 22.25-71.22 32.16-109.74 36.1.03 17.62-.03 35.25-.07 52.88 37.29 2.2 75.59 10.37 106.75 31.95 25.21 17.17 43.51 43.3 53.21 72.05 3.96 11.44 6.74 23.26 8.68 35.21 6.53.09 13.06.08 19.6.09.01 3.01.03 6.04.04 9.07-34.3-.03-68.6.02-102.9.03-.01-3.07-.02-6.12-.04-9.17 8.7-.02 17.41-.01 26.12-.01-1.52-21.07-5.1-42.23-13.09-61.88-6.35-15.65-15.88-30.24-28.91-41.13-19.17-16.31-44.67-23.01-69.4-23.8 0 42.27-.07 84.54-.03 126.81 7.77 0 15.54-.01 23.32.01v9.19c-31.99-.04-63.98 0-95.97-.06-.02-3.07-.04-6.14-.04-9.2 7.45-.02 14.9.01 22.36-.01-.07-42.23.01-84.46-.06-126.68-17.38 6.92-34.34 15.47-48.82 27.44-12.22 10.06-22.33 22.79-28.76 37.29-8.7 19.35-10.99 40.97-9.91 61.99 9.32 0 18.64-.02 27.96.04 0 3.04 0 6.09-.01 9.15-36.32.03-72.64.02-108.95-.09-.08-3.02-.13-6.04-.14-9.06 8.64-.03 17.29 0 25.95-.02 2.35-19.5 7.56-38.82 16.86-56.19 12.61-23.99 33.07-43.18 56.47-56.52 21.54-12.43 45.27-20.56 69.33-26.53.06-17.64-.01-35.28.23-52.92-19.03-3.37-38.02-7.49-56.15-14.3-18.49-6.87-36.22-16.47-50.74-29.97-19.09-17.41-31.16-41.54-36.04-66.73-8.67-.06-17.34.15-26-.02.07-3.06.06-6.13.05-9.19z" fill="#c8e6c9" stroke="none"/>
  <path d="M1888.52 519.86c30.84-26.2 61.67-52.41 92.48-78.64v58.07c-30.77 26.34-61.68 52.52-92.5 78.8.01-19.41-.03-38.82.02-58.23z" fill="#c8e6c9" stroke="none"/>
  <path d="M0 580.94c30.81-26.33 61.74-52.53 92.61-78.79 0 19.39-.03 38.78-.06 58.17C61.68 586.53 30.9 612.85 0 639.04v-58.1z" fill="#c8e6c9" stroke="none"/>
  <path d="M1890.93 611.87c30.07-25.45 60.02-51.04 90.07-76.51v57.99c-30.76 26.4-61.71 52.58-92.57 78.87 0-19.05-.02-38.1.01-57.14-.1-1.55 1.56-2.25 2.49-3.21z" fill="#c8e6c9" stroke="none"/>
  <path d="M0 675.02c30.8-26.33 61.75-52.48 92.57-78.78.04 18.94-.03 37.89-.07 56.84.32 1.55-1.3 2.31-2.19 3.26-30.15 25.54-60.17 51.25-90.31 76.8v-58.12z" fill="#c8e6c9" stroke="none"/>
</svg>
</g></svg></g></g>
<!-- /image 12496 -->

<!-- image 40646 -->
<g id="transformed-40646" data-image="40646" transform="translate(32.5, 59) rotate(45, 42.5, 16)"><g><svg version="1.1" width="85px" height="32px" viewBox="0 0 85 32"><g id="original-40646"><svg xmlns="http://www.w3.org/2000/svg" viewBox="0 0 1981 759" xmlns:xlink="http://www.w3.org/1999/xlink" version="1.1" preserveAspectRatio="xMidYMid meet">
  <path d="M487.3 0h1.4c5.78.19 11.57.25 17.31 1.06 20.11 2.54 40.35 7.01 58.35 16.63 12.15 6.54 23.39 16.03 29.08 28.88 5.15 11.33 4.9 24.64.37 36.12-6.12 15.81-18.62 28.43-32.89 37.19-22.81 13.99-50.72 18.47-77.02 14.58-29.01-4.17-55.89-18-78.55-36.24-.09 73.57-.22 147.13-.25 220.7 12.49.03 24.98-.03 37.48.03.01 2.72.03 5.45.04 8.18-38.04.02-76.07.01-114.11 0l.03-8.2c9.51-.02 19.03.01 28.55-.01 0-66.98-.07-133.96-.08-200.95 2.17-35.29 18.14-70.66 46.75-92.26C427.43 7.45 457.81.17 487.3 0m-14.69 14.76c-15.86 2.22-31.4 8.69-43.03 19.88-9.72 9.33-16.89 21.89-17.96 35.49-.55 7.76 4.17 14.63 9.38 19.91 9.27 9.16 20.95 15.47 32.91 20.38 15.83 6.3 32.94 10.25 50.06 8.9 16.37-1.16 33.1-5.1 46.75-14.58 9.33-6.43 16.54-16.38 18.22-27.74 2.1-14.77-1.37-31.04-12.01-41.96-10.77-11.17-26.15-16.24-41.06-18.9-14.27-2.3-28.9-3.37-43.26-1.38z" fill="#c8e6c9" stroke="none"/>
  <path d="M574.79 2.54c37.82-.07 75.65.02 113.48-.1-.02 3.14-.06 6.28-.13 9.43-11.67.07-23.34.03-35.02.07 40.25 102.32 80.5 204.64 120.77 306.95 7.23-.12 14.48.11 21.71-.22.22 2.76.05 5.53.04 8.3-36.15.05-72.3.14-108.46.13-.09-2.68-.18-5.36-.24-8.03 11.81-.02 23.63-.2 35.45-.21-9.9-25.08-19.93-50.11-29.81-75.19-11.69 19.37-26.08 36.93-40.84 54.01-15 17.47-36.42 29.56-59.33 32.48-17.05 2.09-35.29-.3-49.9-9.81-10.73-6.86-18.62-17.87-21.79-30.19-4.28-16.19-1.64-33.33 3.48-49.01 3.72-10.89 8.14-21.69 14.82-31.14 9.9-14.2 21.85-26.79 32.81-40.15 9.61-11.81 19.09-23.75 27.74-36.29 9.06-13.36 17.3-27.66 21.19-43.46 2.7-10.92 2.74-22.79-1.66-33.28-6.32-15-12.33-30.14-18.76-45.09-8.54.14-17.07-.04-25.6-.04-.08-3.05-.01-6.11.05-9.16m33.43 143.69c-7.19 11.53-14.52 23.05-23.54 33.26-10.75 13.44-19.8 28.48-25.1 44.92-4.22 14.35-5.81 30.37-.11 44.54 3.7 9.3 12.22 15.77 21.39 19.17 12.86 4.72 27.26 6.44 40.55 2.43 17.16-5.02 31.27-17.12 42.45-30.7 8.42-10.59 16.15-22.06 20.78-34.86-16.39-42.03-32.73-84.07-49.09-126.11-8.82 15.95-17.74 31.85-27.33 47.35z" fill="#c8e6c9" stroke="none"/>
  <path d="M730.46 34.03c7.99-17.06 25.58-27.93 43.63-31.48 73.2-.13 146.4 0 219.61-.04.07 3.41.07 6.82.07 10.23-13.26-.01-26.51.01-39.76.04 4.84 35.23 16.2 69.38 31.83 101.26 18.8 38.37 43.48 73.62 71.07 106.16 19.16-.01 38.32-.13 57.49-.13-13.89 37.87-33.72 73.25-55.49 107.09-18.53.04-37.05.12-55.57.14 19.82-30 38.41-61.43 48.85-96.06-77.41.04-154.82.08-232.22.1 18.12 34.59 41.31 66.3 66.98 95.65-20.03.02-40.05 0-60.07.01-26.83-32.8-49.89-68.67-68.33-106.83 17.54.02 35.08-.16 52.62-.05 23.1-26.05 43.49-54.68 59.1-85.86 19-37.76 30.29-79.29 33.43-121.43-40.9.03-81.8-.04-122.71-.03-12.66.26-25.85 5.2-33.73 15.48-10.18 12.98-10.39 32.27-1.6 46.02 4.37 6.99 11.19 12.45 19.06 14.98 9.78 3.19 20.55 2.12 30.11-1.33.08-.5.26-1.49.34-1.99-5.37-3.47-11.54-6.55-14.75-12.42-3.02-4.89-2.23-11.41 1.3-15.82 8.08-10.38 23.65-13.66 35.41-7.94 6.41 2.89 11.9 8.95 12.13 16.26.23 8.42-5.01 15.72-10.64 21.46-3.15 2.96-6.18 6.34-10.37 7.81-12.56 5.43-26.79 7.65-40.27 4.66-16.88-3.54-32.04-15.45-38.48-31.58-4.53-10.93-4.17-23.7.96-34.36m175.83 49.18c-18.6 48.34-43.86 93.91-73.18 136.53 52.98-.24 105.96-.28 158.93-.56-30.99-48.19-61.12-97.76-79.29-152.43-2.68 5.23-4.13 11.05-6.46 16.46z" fill="#c8e6c9" stroke="none"/>
  <path d="M1486.63 3.86c20.91-1.92 42.3-.74 62.55 5.09 17.33 4.98 33.65 13.7 47.04 25.82 25.09 22.49 38.84 55.03 44.54 87.7 6.6 39.19 5.11 80.53-9.28 117.9-10.67 27.93-29.11 53.41-54.34 69.85-32.99 21.74-75.8 26.17-113.34 14.99-29.92-8.91-55.54-29.77-71.98-56.12-21.15-33.44-28.93-73.94-27.18-113.1 1.4-34.97 9.33-70.83 29.45-100.01 9.85-14.26 22.73-26.48 37.76-35.17 16.66-9.75 35.64-15.08 54.78-16.95m5.9 11.96c-15.57 1.69-31.01 7.38-42.77 17.93-13.02 11.51-21 27.61-25.92 44.04-6.74 22.75-8.68 46.59-9.46 70.2-.63 24.99-.3 50.09 2.97 74.91 2.62 19.19 6.99 38.49 16.11 55.73 6.76 12.82 16.75 24.2 29.56 31.2 16.04 8.89 35.04 10.81 53.05 9.04 15.82-1.57 31.45-7.67 43.11-18.67 13.16-12.21 21.05-28.98 26-45.99 6.99-24.42 8.89-49.95 9.5-75.24.36-23.04-.05-46.17-2.95-69.06-2.5-18.91-6.66-37.96-15.6-54.96-6.78-12.94-17.03-24.33-30.12-31.06-16.34-8.53-35.43-9.97-53.48-8.07z" fill="#c8e6c9" stroke="none"/>
  <path d="M1105.87 3.7c39.43.03 78.86.01 118.29.07.02 3 .01 6-.03 9-11.84 0-23.66-.01-35.49.01.01 84.35-.27 168.71-.59 253.07 30.22-8.33 56.15-27.94 76.33-51.49 4.04-4.64 7.87-9.46 11.63-14.33.62-.97 1.66-1.85 1.55-3.12.09-61.37.27-122.74.33-184.1-12.07-.01-24.15-.01-36.22-.01-.02-3.02-.01-6.04.04-9.07h114.75c-.01 3.04.08 6.08-.1 9.11-8.56-.14-17.13-.08-25.69-.09-.01 101.76-.01 203.53 0 305.3 8.58.04 17.16.14 25.74.16-.01 3.22-.06 6.44.09 9.66-38.3.26-76.62 0-114.92.1.01-3.32.01-6.65.02-9.97 12.14-.01 24.28-.13 36.43-.11-.07-29.16-.17-58.32-.16-87.48-8.59 12.35-19.27 23.28-31.62 31.91-17.49 12.31-37.71 20.14-58.25 25.7.02 9.95-.05 19.89-.03 29.84 12.06-.01 24.13.01 36.19.04-.01 3.36.02 6.73.09 10.1-40.18-.05-80.36-.06-120.54-.1-.04-3.34-.06-6.69-.04-10.03 11.69-.02 23.37 0 35.06-.01-.04-101.61.07-203.23-.05-304.83-10.74-.67-21.88-.06-32.77-.23-.05-3.03-.06-6.06-.04-9.1z" fill="#c8e6c9" stroke="none"/>
  <path d="M866.48 420.74c17.78-2.8 36.51-1.4 53.17 5.68 13.24 5.59 24.85 15.09 32.65 27.2 9.03 13.9 12.92 30.87 11.75 47.34-1.05 14.54-6.77 28.62-15.85 40-9.34 11.77-22.1 20.72-36.23 25.76-18.56 6.68-39.44 6.62-57.96-.15-17.37-6.3-32.62-18.58-41.93-34.59-16.33-27.31-12.07-65.03 9.71-88.17 11.64-12.59 27.87-20.36 44.69-23.07m7.03 10.86c-11.62 2.45-21.13 11.03-26.51 21.4-8.34 15.89-9.96 34.4-8.88 52.05 1.01 14 4.02 28.58 12.75 39.93 6.39 8.43 16.5 13.63 26.98 14.56 10.37.97 21.52-.31 30.3-6.32 7.95-5.39 12.76-14.25 15.43-23.28 3.25-11.01 4.15-22.56 4.46-33.99.25-13.18-.72-26.7-5.6-39.08-3.45-8.83-9.54-16.92-18.05-21.4-9.38-4.92-20.57-5.98-30.88-3.87z" fill="#c8e6c9" stroke="none"/>
  <path d="M1305.99 436.98c16.4-9.54 34.9-16.02 53.97-16.73 20.37-.52 41.18 2.9 59.45 12.2 15.64 7.86 28.91 20.04 38.74 34.46 15.63 22.88 23.39 50.16 27.33 77.32-7.51.06-15.01.1-22.51.1-1.74-11.78-2.71-23.7-5.49-35.3-4.44-17.97-13.35-34.94-26.25-48.29-11.72-12.19-26.8-21.27-43.29-25.22-14.92-3.67-31.09-3.02-45.22 3.3-17.48 7.54-31.37 21.75-40.99 37.95-16.11 27.23-21.62 59.44-21.67 90.72 68.47.03 136.94-.02 205.41.02-.02 5.05.04 10.09.04 15.14-68.81.04-137.62-.01-206.43.03-1.68 21.36-1.16 42.9 1.64 64.15 2.71 19.59 7.47 39.19 16.74 56.8 7.09 13.46 17.36 25.64 30.79 33.09 15.86 8.93 34.93 10.71 52.67 7.77 16.77-2.81 32.45-11.15 44.46-23.14 12.56-12.4 21.44-28.12 27.39-44.64 7.75-21.71 10.72-44.95 10.17-67.94 7.51-.02 15.02-.01 22.55-.01-1.5 22.67-5.31 45.31-12.88 66.77-5.85 16.49-14.02 32.31-25.34 45.73-15.79 19.11-38.7 32.07-63.25 35.61-9.27.98-18.66 3.27-27.94 1.19-19.36-1.64-38.2-8.15-54.64-18.47-41.38-26-68.05-72.45-73.11-120.69-2.18-18.66.24-37.38 1.94-55.97 2.45-22.44 6.35-45.33 17.15-65.45 13.73-24.84 34.05-46.13 58.57-60.5z" fill="#c8e6c9" stroke="none"/>
  <path d="M241.09 426.67c31.25-6.94 64.19-4.07 94.45 5.97 14.88 5.14 29.53 12.74 39.82 24.96 7.79 9.15 12.12 21.31 11.06 33.36-1.19 15.38-9.69 29.31-20.65 39.78-14.7 14.01-33.97 22.71-53.87 26.12-21.3 3.69-43.42 1.28-63.8-5.7-19.5-6.63-37.42-17.32-53.46-30.13-.15 73.55-.13 147.11-.31 220.67 12.5.02 24.99.03 37.49.03.06 2.72.08 5.44.09 8.17-38.05.08-76.1.02-114.16.03.04-2.74.07-5.47.1-8.2 9.49.03 18.98-.07 28.46.06.2-67.27-.07-134.55-.02-201.82 2.05-27.2 11.72-54.27 29.55-75.16 16.58-19.7 40.22-32.74 65.25-38.14m19.45 11.08c-15.27 2.36-30.18 8.71-41.44 19.46-9.63 9.14-16.76 21.43-18.12 34.78-.68 5.26 1.28 10.48 4.24 14.76 6.52 9.27 16.24 15.69 26.09 20.98 16.6 8.52 34.98 14.2 53.73 14.64 18.08-.13 36.72-3.48 52.3-13.07 10.49-6.39 18.93-16.88 20.85-29.23 2.17-14.86-1.27-31.27-11.99-42.27-11.04-11.42-26.85-16.46-42.13-19.06-14.37-2.2-29.1-3.25-43.53-.99z" fill="#c8e6c9" stroke="none"/>
  <path d="M364.08 425.32c37.78-.14 75.55.07 113.32-.18.18 3.16.06 6.32.07 9.48-11.69.09-23.37.02-35.05.12 40.24 102.32 80.49 204.63 120.75 306.94 7.28 0 14.55-.12 21.84-.12-.02 2.73-.05 5.47-.09 8.22-36.16.05-72.32.01-108.48.11-.06-2.68-.14-5.36-.22-8.03 11.81-.08 23.63-.14 35.45-.25-9.92-25.07-19.91-50.11-29.84-75.18-8.51 14.22-18.56 27.46-29.1 40.23-8.82 10.47-17.31 21.53-28.71 29.38-18.29 13.24-41.51 19.84-64.02 16.98-15.27-1.8-30.5-8.54-40.27-20.73-8.71-10.64-12.26-24.71-11.84-38.28.51-17.59 6.29-34.59 13.87-50.31 7.5-14.46 18.65-26.54 29.07-38.91 11.51-13.25 22.44-27.01 32.87-41.12 10.2-14.12 19.73-29.09 24.99-45.83 3.82-12.18 4.78-25.79-.14-37.81-6.28-15.13-12.54-30.27-18.78-45.41-8.62-.03-17.24-.09-25.86-.18.09-3.05.14-6.08.17-9.12m20.17 163.92c-5.21 7.68-11.86 14.25-17.02 21.97-9.68 14.1-17.97 29.67-20.92 46.68-1.98 11.78-1.99 24.47 3.18 35.49 4.09 8.72 12.48 14.59 21.34 17.79 12.62 4.47 26.66 6.09 39.66 2.22 17.11-4.94 31.22-16.93 42.39-30.44 8.54-10.65 16.3-22.22 21.05-35.09-16.35-42.05-32.69-84.1-49.1-126.13-12.81 22.91-25.53 45.96-40.58 67.51z" fill="#c8e6c9" stroke="none"/>
  <path d="M520.9 457.09c7.83-17.46 25.72-28.59 44.03-32.16 73.17-.08 146.36-.01 219.53-.03.01 3.41.04 6.82.04 10.23-13.25.01-26.5 0-39.75.01 4.93 35.97 16.66 70.8 32.8 103.26 18.65 37.6 42.97 72.15 70.04 104.15 19.17.11 38.36-.24 57.53.07-13.97 37.79-33.71 73.16-55.48 106.95-18.52.03-37.04.07-55.56.1 19.83-29.98 38.42-61.41 48.84-96.03-77.39-.02-154.78.08-232.17.14 18.1 34.58 41.31 66.25 66.92 95.61-19.98.07-39.95-.06-59.93.07-26.98-32.75-49.97-68.75-68.47-106.93 17.21.02 34.44-.03 51.65-.03 1.3.2 1.92-1.14 2.72-1.87 22.41-25.73 42.35-53.78 57.57-84.38 18.89-37.63 30.06-78.99 33.25-120.95-40.49-.11-80.98-.01-121.47-.14-12.94 0-26.55 4.77-34.75 15.2-10.54 13.15-10.7 32.99-1.48 46.89 5 7.74 13.09 13.42 22.11 15.36 8.9 2.04 18.21.65 26.77-2.18.11-1.13.56-2.58-.89-2.99-5.85-3.13-11.93-7.12-14.53-13.5-2.22-5.22-.32-11.3 3.43-15.29 7.74-8.38 20.61-11.51 31.35-7.65 6.55 2.22 12.72 7.12 14.49 14.06 1.62 6.29-.81 12.81-4.38 17.97-3.55 5.04-8 9.47-12.95 13.14-14.04 7.04-30.66 9.67-45.98 5.58-15.62-4.07-29.43-15.33-35.68-30.32-4.68-10.85-4.58-23.61.4-34.34m102.98 185c52.97-.13 105.95-.27 158.92-.51-31.09-48.33-61.35-98.06-79.44-152.94-19.23 54.52-46.67 105.92-79.48 153.45z" fill="#c8e6c9" stroke="none"/>
  <path d="M965.41 435.6c-.03-3.04-.04-6.08-.02-9.12 39.41.01 78.82.11 118.23.02.08 2.99.03 6 0 9-12.04-.03-24.07.13-36.11.07-.08 18.87-.02 37.74-.08 56.61 13.43-9.97 29.51-17.6 46.57-17.25 16.02.17 31.03 7.5 43.4 17.25-.01-18.75 0-37.5-.01-56.25-11.98-.19-23.97-.07-35.95-.17-.08-3-.17-5.99-.27-8.98 38.28-.12 76.55-.18 114.83-.36.01 3.06 0 6.12-.04 9.18-8.61-.11-17.21-.12-25.8-.08-.02 102.07.12 204.14.08 306.21 8.56.01 17.13-.06 25.69-.03v8.21c-38.28-.01-76.56 0-114.83-.01-.03-2.75-.01-5.49.08-8.23 12.05.03 24.1-.04 36.16-.09.09-76.98-.07-153.96.09-230.94-8.88-6.38-18.18-12.42-28.47-16.24-8.61-3.24-18.18-4.02-27.11-1.65-12.63 3.3-23.72 10.56-34.4 17.81-.14 76.83-.29 153.66-.45 230.49 12.19.08 24.38.13 36.58.19-.36 3.17-.72 6.35-1.07 9.54-38.88-.08-77.77-.28-116.65-.35-.45-3.24-.89-6.49-1.29-9.73 11.45 0 22.9-.01 34.35 0-.13-101.73-.45-203.47-.66-305.2-10.95-.03-21.9.12-32.85.1z" fill="#c8e6c9" stroke="none"/>
  <path d="M1476.69 429.38c36.4-.05 72.81.02 109.22-.04-.08 3.07-.12 6.14-.13 9.22-9.31.04-18.6.04-27.9.12 1.71 22.77 9.1 45.75 24.29 63.17 16.11 18.81 39.37 29.92 63.02 35.93.03-33-.04-66-.03-99-7.36-.04-14.72.04-22.07.02-.03-3.09-.06-6.18-.08-9.27 31.97-.09 63.94.02 95.92-.06.04 3.1.04 6.21.02 9.31-7.68-.02-15.35-.09-23.02-.11-.03 33.02-.1 66.04-.13 99.06 20.44-1.82 41.09-7.05 58.33-18.54 13.63-8.96 24.45-21.9 31.44-36.59 6.61-13.77 10.21-28.81 11.97-43.93-5.56-.01-11.1.01-16.64-.01-.01-3.12-.09-6.24.11-9.34 34.29.1 68.58.02 102.88.04l.06 9.31c-6.53 0-13.06-.02-19.58.01-11.81 29.95-32.12 56.72-58.84 74.88-32.22 22.25-71.22 32.16-109.74 36.1.03 17.62-.03 35.25-.07 52.88 37.29 2.2 75.59 10.37 106.75 31.95 25.21 17.17 43.51 43.3 53.21 72.05 3.96 11.44 6.74 23.26 8.68 35.21 6.53.09 13.06.08 19.6.09.01 3.01.03 6.04.04 9.07-34.3-.03-68.6.02-102.9.03-.01-3.07-.02-6.12-.04-9.17 8.7-.02 17.41-.01 26.12-.01-1.52-21.07-5.1-42.23-13.09-61.88-6.35-15.65-15.88-30.24-28.91-41.13-19.17-16.31-44.67-23.01-69.4-23.8 0 42.27-.07 84.54-.03 126.81 7.77 0 15.54-.01 23.32.01v9.19c-31.99-.04-63.98 0-95.97-.06-.02-3.07-.04-6.14-.04-9.2 7.45-.02 14.9.01 22.36-.01-.07-42.23.01-84.46-.06-126.68-17.38 6.92-34.34 15.47-48.82 27.44-12.22 10.06-22.33 22.79-28.76 37.29-8.7 19.35-10.99 40.97-9.91 61.99 9.32 0 18.64-.02 27.96.04 0 3.04 0 6.09-.01 9.15-36.32.03-72.64.02-108.95-.09-.08-3.02-.13-6.04-.14-9.06 8.64-.03 17.29 0 25.95-.02 2.35-19.5 7.56-38.82 16.86-56.19 12.61-23.99 33.07-43.18 56.47-56.52 21.54-12.43 45.27-20.56 69.33-26.53.06-17.64-.01-35.28.23-52.92-19.03-3.37-38.02-7.49-56.15-14.3-18.49-6.87-36.22-16.47-50.74-29.97-19.09-17.41-31.16-41.54-36.04-66.73-8.67-.06-17.34.15-26-.02.07-3.06.06-6.13.05-9.19z" fill="#c8e6c9" stroke="none"/>
  <path d="M1888.52 519.86c30.84-26.2 61.67-52.41 92.48-78.64v58.07c-30.77 26.34-61.68 52.52-92.5 78.8.01-19.41-.03-38.82.02-58.23z" fill="#c8e6c9" stroke="none"/>
  <path d="M0 580.94c30.81-26.33 61.74-52.53 92.61-78.79 0 19.39-.03 38.78-.06 58.17C61.68 586.53 30.9 612.85 0 639.04v-58.1z" fill="#c8e6c9" stroke="none"/>
  <path d="M1890.93 611.87c30.07-25.45 60.02-51.04 90.07-76.51v57.99c-30.76 26.4-61.71 52.58-92.57 78.87 0-19.05-.02-38.1.01-57.14-.1-1.55 1.56-2.25 2.49-3.21z" fill="#c8e6c9" stroke="none"/>
  <path d="M0 675.02c30.8-26.33 61.75-52.48 92.57-78.78.04 18.94-.03 37.89-.07 56.84.32 1.55-1.3 2.31-2.19 3.26-30.15 25.54-60.17 51.25-90.31 76.8v-58.12z" fill="#c8e6c9" stroke="none"/>
</svg>
</g></svg></g></g>
<!-- /image 40646 -->
</defs><rect x="0" y="0" width="150" height="150" fill="rgba(200, 230, 201, 0)"></rect><use xlink:href="#transformed-12496" transform="translate(-150, -150)"></use><use xlink:href="#transformed-12496" transform="translate(0, -150)"></use><use xlink:href="#transformed-12496" transform="translate(150, -150)"></use><use xlink:href="#transformed-12496" transform="translate(-150, 0)"></use><use xlink:href="#transformed-12496" transform="translate(0, 0)"></use><use xlink:href="#transformed-12496" transform="translate(150, 0)"></use><use xlink:href="#transformed-12496" transform="translate(-150, 150)"></use><use xlink:href="#transformed-12496" transform="translate(0, 150)"></use><use xlink:href="#transformed-12496" transform="translate(150, 150)"></use><use xlink:href="#transformed-40646" transform="translate(-150, -150)"></use><use xlink:href="#transformed-40646" transform="translate(0, -150)"></use><use xlink:href="#transformed-40646" transform="translate(150, -150)"></use><use xlink:href="#transformed-40646" transform="translate(-150, 0)"></use><use xlink:href="#transformed-40646" transform="translate(0, 0)"></use><use xlink:href="#transformed-40646" transform="translate(150, 0)"></use><use xlink:href="#transformed-40646" transform="translate(-150, 150)"></use><use xlink:href="#transformed-40646" transform="translate(0, 150)"></use><use xlink:href="#transformed-40646" transform="translate(150, 150)"></use></svg>