<svg id="Layer_1" data-name="Layer 1" xmlns="http://www.w3.org/2000/svg" viewBox="0 0 1981 339.52"><defs><style>.cls-1{fill:#ffffff;}</style></defs><title>logo-radonezh-white</title><path class="cls-1" d="M866.48,1.35C884.26-1.45,903-.05,919.65,7a72.48,72.48,0,0,1,32.65,27.2c9,13.9,12.92,30.87,11.75,47.34a73.13,73.13,0,0,1-15.85,40A81.29,81.29,0,0,1,912,147.33a85.78,85.78,0,0,1-58-.15,80.41,80.41,0,0,1-41.93-34.59c-16.33-27.31-12.07-65,9.71-88.17C833.43,11.83,849.66,4.06,866.48,1.35Zm7,10.86c-11.62,2.45-21.13,11-26.51,21.4-8.34,15.89-10,34.4-8.88,52.05,1,14,4,28.58,12.75,39.93a38.28,38.28,0,0,0,27,14.56c10.37,1,21.52-.31,30.3-6.32,8-5.39,12.76-14.25,15.43-23.28,3.25-11,4.15-22.56,4.46-34,.25-13.18-.72-26.7-5.6-39.08-3.45-8.83-9.54-16.92-18.05-21.4C895,11.16,883.82,10.1,873.51,12.21Z"/><path class="cls-1" d="M1306,17.59c16.4-9.54,34.9-16,54-16.73,20.37-.52,41.18,2.9,59.45,12.2a103.9,103.9,0,0,1,38.74,34.46c15.63,22.88,23.39,50.16,27.33,77.32q-11.26.09-22.51.1c-1.74-11.78-2.71-23.7-5.49-35.3a106.28,106.28,0,0,0-26.25-48.29,89.66,89.66,0,0,0-43.29-25.22c-14.92-3.67-31.09-3-45.22,3.3-17.48,7.54-31.37,21.75-41,38-16.11,27.23-21.62,59.44-21.67,90.72q102.7,0,205.41,0c0,5,0,10.09,0,15.14q-103.21.06-206.43,0a307.14,307.14,0,0,0,1.64,64.15c2.71,19.59,7.47,39.19,16.74,56.8,7.09,13.46,17.36,25.64,30.79,33.09,15.86,8.93,34.93,10.71,52.67,7.77A82.92,82.92,0,0,0,1425.38,302c12.56-12.4,21.44-28.12,27.39-44.64,7.75-21.71,10.72-45,10.17-67.94,7.51,0,15,0,22.55,0-1.5,22.67-5.31,45.31-12.88,66.77-5.85,16.49-14,32.31-25.34,45.73A101.65,101.65,0,0,1,1384,337.48c-9.27,1-18.66,3.27-27.94,1.19a122.8,122.8,0,0,1-54.64-18.47c-41.38-26-68-72.45-73.11-120.69-2.18-18.66.24-37.38,1.94-56,2.45-22.44,6.35-45.33,17.15-65.45A160,160,0,0,1,1306,17.59Z"/><path class="cls-1" d="M241.09,7.28c31.25-6.94,64.19-4.07,94.45,6,14.88,5.14,29.53,12.74,39.82,25,7.79,9.15,12.12,21.31,11.06,33.36-1.19,15.38-9.69,29.31-20.65,39.78-14.7,14-34,22.71-53.87,26.12-21.3,3.69-43.42,1.28-63.8-5.7-19.5-6.63-37.42-17.32-53.46-30.13-.15,73.55-.13,147.11-.31,220.67q18.75,0,37.49,0c.06,2.72.08,5.44.09,8.17-38,.08-76.1,0-114.16,0q.06-4.11.1-8.2c9.49,0,19-.07,28.46.06.2-67.27-.07-134.55,0-201.82,2.05-27.2,11.72-54.27,29.55-75.16C192.42,25.72,216.06,12.68,241.09,7.28Zm19.45,11.08c-15.27,2.36-30.18,8.71-41.44,19.46C209.47,47,202.34,59.25,201,72.6c-.68,5.26,1.28,10.48,4.24,14.76,6.52,9.27,16.24,15.69,26.09,21,16.6,8.52,35,14.2,53.73,14.64,18.08-.13,36.72-3.48,52.3-13.07,10.49-6.39,18.93-16.88,20.85-29.23,2.17-14.86-1.27-31.27-12-42.27-11-11.42-26.85-16.46-42.13-19.06C289.7,17.15,275,16.1,260.54,18.36Z"/><path class="cls-1" d="M364.08,5.93c37.78-.14,75.55.07,113.32-.18.18,3.16.06,6.32.07,9.48-11.69.09-23.37,0-35.05.12q60.36,153.48,120.75,306.94c7.28,0,14.55-.12,21.84-.12q0,4.1-.09,8.22c-36.16,0-72.32,0-108.48.11-.06-2.68-.14-5.36-.22-8,11.81-.08,23.63-.14,35.45-.25q-14.88-37.6-29.84-75.18c-8.51,14.22-18.56,27.46-29.1,40.23-8.82,10.47-17.31,21.53-28.71,29.38-18.29,13.24-41.51,19.84-64,17-15.27-1.8-30.5-8.54-40.27-20.73-8.71-10.64-12.26-24.71-11.84-38.28.51-17.59,6.29-34.59,13.87-50.31,7.5-14.46,18.65-26.54,29.07-38.91,11.51-13.25,22.44-27,32.87-41.12,10.2-14.12,19.73-29.09,25-45.83,3.82-12.18,4.78-25.79-.14-37.81q-9.42-22.69-18.78-45.41-12.93,0-25.86-.18C364,12,364.05,9,364.08,5.93Zm20.17,163.92c-5.21,7.68-11.86,14.25-17,22-9.68,14.1-18,29.67-20.92,46.68-2,11.78-2,24.47,3.18,35.49,4.09,8.72,12.48,14.59,21.34,17.79,12.62,4.47,26.66,6.09,39.66,2.22,17.11-4.94,31.22-16.93,42.39-30.44,8.54-10.65,16.3-22.22,21.05-35.09q-24.53-63.08-49.1-126.13C412,125.25,399.3,148.3,384.25,169.85Z"/><path class="cls-1" d="M520.9,37.7c7.83-17.46,25.72-28.59,44-32.16q109.76-.12,219.53,0c0,3.41,0,6.82,0,10.23H744.75c4.93,36,16.66,70.8,32.8,103.26,18.65,37.6,43,72.15,70,104.15,19.17.11,38.36-.24,57.53.07-14,37.79-33.71,73.16-55.48,107l-55.56.1c19.83-30,38.42-61.41,48.84-96q-116.08,0-232.17.14c18.1,34.58,41.31,66.25,66.92,95.61-20,.07-39.95-.06-59.93.07a535.58,535.58,0,0,1-68.47-106.93c17.21,0,34.44,0,51.65,0,1.3.2,1.92-1.14,2.72-1.87,22.41-25.73,42.35-53.78,57.57-84.38A325.1,325.1,0,0,0,694.46,15.91c-40.49-.11-81,0-121.47-.14-12.94,0-26.55,4.77-34.75,15.2-10.54,13.15-10.7,33-1.48,46.89a35.56,35.56,0,0,0,22.11,15.36c8.9,2,18.21.65,26.77-2.18.11-1.13.56-2.58-.89-3-5.85-3.13-11.93-7.12-14.53-13.5-2.22-5.22-.32-11.3,3.43-15.29A29.91,29.91,0,0,1,605,51.61c6.55,2.22,12.72,7.12,14.49,14.06,1.62,6.29-.81,12.81-4.38,18a58.29,58.29,0,0,1-13,13.14c-14,7-30.66,9.67-46,5.58C540.56,98.29,526.75,87,520.5,72A42.51,42.51,0,0,1,520.9,37.7Zm103,185q79.46-.19,158.92-.51c-31.09-48.33-61.35-98.06-79.44-152.94C684.13,123.77,656.69,175.17,623.88,222.7Z"/><path class="cls-1" d="M965.41,16.21q0-4.56,0-9.12c39.41,0,78.82.11,118.23,0,.08,3,0,6,0,9-12,0-24.07.13-36.11.07-.08,18.87,0,37.74-.08,56.61,13.43-10,29.51-17.6,46.57-17.25,16,.17,31,7.5,43.4,17.25q0-28.13,0-56.25c-12-.19-24-.07-36-.17q-.12-4.5-.27-9Q1158.59,7.21,1216,7q0,4.59,0,9.18c-8.61-.11-17.21-.12-25.8-.08q0,153.1.08,306.21c8.56,0,17.13-.06,25.69,0v8.21H1101.1c0-2.75,0-5.49.08-8.23,12,0,24.1,0,36.16-.09.09-77-.07-154,.09-230.94-8.88-6.38-18.18-12.42-28.47-16.24a44.81,44.81,0,0,0-27.11-1.65c-12.63,3.3-23.72,10.56-34.4,17.81q-.21,115.24-.45,230.49,18.29.12,36.58.19-.54,4.76-1.07,9.54c-38.88-.08-77.77-.28-116.65-.35-.45-3.24-.89-6.49-1.29-9.73h34.35q-.2-152.59-.66-305.2C987.31,16.08,976.36,16.23,965.41,16.21Z"/><path class="cls-1" d="M1476.69,10c36.4,0,72.81,0,109.22,0q-.12,4.6-.13,9.22c-9.31,0-18.6,0-27.9.12,1.71,22.77,9.1,45.75,24.29,63.17,16.11,18.81,39.37,29.92,63,35.93,0-33,0-66,0-99-7.36,0-14.72,0-22.07,0q0-4.63-.08-9.27c32-.09,63.94,0,95.92-.06,0,3.1,0,6.21,0,9.31-7.68,0-15.35-.09-23-.11q0,49.53-.13,99.06c20.44-1.82,41.09-7.05,58.33-18.54a90.1,90.1,0,0,0,31.44-36.59c6.61-13.77,10.21-28.81,12-43.93-5.56,0-11.1,0-16.64,0,0-3.12-.09-6.24.11-9.34,34.29.1,68.58,0,102.88,0l.06,9.31c-6.53,0-13.06,0-19.58,0-11.81,30-32.12,56.72-58.84,74.88-32.22,22.25-71.22,32.16-109.74,36.1,0,17.62,0,35.25-.07,52.88,37.29,2.2,75.59,10.37,106.75,31.95,25.21,17.17,43.51,43.3,53.21,72.05a210.8,210.8,0,0,1,8.68,35.21c6.53.09,13.06.08,19.6.09,0,3,0,6,0,9.07q-51.45,0-102.9,0c0-3.07,0-6.12,0-9.17q13.05,0,26.12,0c-1.52-21.07-5.1-42.23-13.09-61.88-6.35-15.65-15.88-30.24-28.91-41.13-19.17-16.31-44.67-23-69.4-23.8q0,63.4,0,126.81c7.77,0,15.54,0,23.32,0v9.19c-32,0-64,0-96-.06,0-3.07,0-6.14,0-9.2,7.45,0,14.9,0,22.36,0-.07-42.23,0-84.46-.06-126.68-17.38,6.92-34.34,15.47-48.82,27.44a102.68,102.68,0,0,0-28.76,37.29c-8.7,19.35-11,41-9.91,62,9.32,0,18.64,0,28,0q0,4.56,0,9.15-54.48,0-109-.09-.12-4.53-.14-9.06c8.64,0,17.29,0,26,0,2.35-19.5,7.56-38.82,16.86-56.19,12.61-24,33.07-43.18,56.47-56.52,21.54-12.43,45.27-20.56,69.33-26.53.06-17.64,0-35.28.23-52.92-19-3.37-38-7.49-56.15-14.3-18.49-6.87-36.22-16.47-50.74-30-19.09-17.41-31.16-41.54-36-66.73-8.67-.06-17.34.15-26,0C1476.71,16.12,1476.7,13,1476.69,10Z"/><path class="cls-1" d="M1888.52,100.47q46.26-39.3,92.48-78.64V79.9q-46.15,39.51-92.5,78.8C1888.51,139.29,1888.47,119.88,1888.52,100.47Z"/><path class="cls-1" d="M0,161.55q46.22-39.49,92.61-78.79,0,29.08-.06,58.17Q46.25,180.24,0,219.65Z"/><path class="cls-1" d="M1890.93,192.48Q1936,154.3,1981,116v58c-30.76,26.4-61.71,52.58-92.57,78.87q0-28.57,0-57.14C1888.34,194.14,1890,193.44,1890.93,192.48Z"/><path class="cls-1" d="M0,255.63c30.8-26.33,61.75-52.48,92.57-78.78,0,18.94,0,37.89-.07,56.84.32,1.55-1.3,2.31-2.19,3.26C60.16,262.49,30.14,288.2,0,313.75Z"/></svg>